#!OML:ASF G:\JayActor3\Patient Classification 1\Patient 1\Session 5\male.ASF
:FULLY-SPECIFIED
:DEGREES
1004
root -53.2159 17.5435 -4.88065 -145.632 84.5896 -162.769
lowerback 22.2394 -2.412 3.97461
upperback 6.81033 -1.78023 -0.312755
thorax -5.09306 -0.653065 -2.15821
lowerneck 5.27229 -0.17561 2.90487
upperneck -16.3904 0.49922 1.00317
head -5.81936 0.108152 -0.210269
rclavicle 2.06736e-014 -3.57812e-015
rhumerus -25.8501 -0.511917 -89.162
rradius 29.1322
rwrist 1.81242
rhand -21.3927 -9.59777
rfingers 7.12502
rthumb 4.99522 -39.5189
lclavicle 2.06736e-014 -3.57812e-015
lhumerus -30.6056 1.48353 85.4212
lradius 31.4448
lwrist 24.0793
lhand -18.6673 14.3653
lfingers 7.12502
lthumb 7.62624 44.2078
rfemur -31.979 0.94175 26.4434
rtibia 36.6807
rfoot -16.1459 -3.43785
rtoes 4.2439
lfemur -52.1184 8.53203 -24.7293
ltibia 56.2622
lfoot 5.00068 -5.47825
ltoes -29.6005
1005
root -53.3314 17.5608 -4.88015 -145.993 84.6847 -163.092
lowerback 22.2111 -2.36739 3.88062
upperback 6.77404 -1.7497 -0.33994
thorax -5.11447 -0.640761 -2.14208
lowerneck 5.30828 -0.197781 2.92838
upperneck -16.4735 0.476413 1.00222
head -5.85197 0.0952525 -0.213216
rclavicle -7.55382e-015 -1.33186e-014
rhumerus -26.0394 -0.74146 -89.049
rradius 28.9976
rwrist 1.93679
rhand -21.4477 -9.55226
rfingers 7.12502
rthumb 4.94208 -39.4746
lclavicle -7.55382e-015 -1.33186e-014
lhumerus -30.7383 1.49734 85.3565
lradius 31.4069
lwrist 24.002
lhand -18.7995 14.3855
lfingers 7.12502
lthumb 7.4987 44.2326
rfemur -32.222 0.66951 26.3017
rtibia 36.3954
rfoot -15.8725 -2.99162
rtoes 2.7585
lfemur -51.6964 8.61192 -24.5344
ltibia 58.3542
lfoot 4.93227 -4.8147
ltoes -29.1824
1006
root -53.4455 17.5796 -4.88017 -145.94 84.7868 -162.995
lowerback 22.1669 -2.31912 3.79925
upperback 6.74262 -1.71174 -0.356021
thorax -5.12195 -0.624602 -2.1234
lowerneck 5.35181 -0.215526 2.93772
upperneck -16.5722 0.461857 1.018
head -5.89079 0.085986 -0.209132
rclavicle -9.34288e-015 9.93923e-016
rhumerus -26.2142 -0.976786 -88.9239
rradius 28.8622
rwrist 2.06597
rhand -21.5132 -9.53379
rfingers 7.12502
rthumb 4.87881 -39.4576
lclavicle -9.34288e-015 9.93923e-016
lhumerus -30.8628 1.51118 85.2906
lradius 31.3541
lwrist 23.8682
lhand -18.867 14.3934
lfingers 7.12502
lthumb 7.43354 44.2428
rfemur -32.4234 0.375316 26.2091
rtibia 36.0465
rfoot -15.5153 -2.51992
rtoes 1.39506
lfemur -51.165 8.72794 -24.2912
ltibia 60.2911
lfoot 4.94481 -4.24332
ltoes -28.743
1007
root -53.558 17.6005 -4.88067 -145.321 84.8936 -162.33
lowerback 22.1075 -2.26676 3.73887
upperback 6.7149 -1.66375 -0.357444
thorax -5.11722 -0.603449 -2.10373
lowerneck 5.39542 -0.225016 2.94004
upperneck -16.6747 0.458519 1.03604
head -5.93075 0.082487 -0.203914
rclavicle 6.55989e-015 -4.63168e-014
rhumerus -26.3715 -1.20628 -88.7901
rradius 28.7212
rwrist 2.20788
rhand -21.5882 -9.52783
rfingers 7.12502
rthumb 4.8064 -39.4533
lclavicle 6.55989e-015 -4.63168e-014
lhumerus -30.9782 1.52658 85.2262
lradius 31.2855
lwrist 23.7059
lhand -18.8829 14.3769
lfingers 7.12502
lthumb 7.41819 44.2268
rfemur -32.5815 0.0805599 26.1772
rtibia 35.6248
rfoot -15.0243 -2.05248
rtoes 0.140139
lfemur -50.5276 8.88356 -23.989
ltibia 62.0604
lfoot 5.04077 -3.76667
ltoes -28.3273
1008
root -53.6692 17.6227 -4.88178 -144.17 85.0054 -161.13
lowerback 22.0288 -2.21092 3.69367
upperback 6.69227 -1.60792 -0.344086
thorax -5.09655 -0.578271 -2.07909
lowerneck 5.42707 -0.225059 2.94343
upperneck -16.7715 0.465802 1.04181
head -5.96673 0.0851613 -0.203439
rclavicle -3.35946e-014 -4.31363e-014
rhumerus -26.5099 -1.40947 -88.6517
rradius 28.5916
rwrist 2.33626
rhand -21.6439 -9.5677
rfingers 7.12502
rthumb 4.75258 -39.4944
lclavicle -3.35946e-014 -4.31363e-014
lhumerus -31.0785 1.54974 85.1628
lradius 31.1999
lwrist 23.5486
lhand -18.8449 14.3403
lfingers 7.12502
lthumb 7.45487 44.189
rfemur -32.7024 -0.214432 26.2036
rtibia 35.1372
rfoot -14.3976 -1.62005
rtoes -0.913875
lfemur -49.7823 9.07222 -23.6347
ltibia 63.6529
lfoot 5.2072 -3.39696
ltoes -27.986
1009
root -53.7793 17.6454 -4.88377 -142.606 85.1237 -159.523
lowerback 21.9412 -2.15373 3.66193
upperback 6.6659 -1.54794 -0.325244
thorax -5.07541 -0.551404 -2.05726
lowerneck 5.44491 -0.214338 2.96396
upperneck -16.8499 0.484507 1.02228
head -5.99434 0.0943785 -0.214511
rclavicle 2.70347e-014 1.37161e-014
rhumerus -26.6422 -1.59059 -88.5169
rradius 28.4676
rwrist 2.467
rhand -21.6943 -9.60906
rfingers 7.12502
rthumb 4.70397 -39.5368
lclavicle 2.70347e-014 1.37161e-014
lhumerus -31.1762 1.5829 85.0928
lradius 31.1005
lwrist 23.413
lhand -18.7358 14.3018
lfingers 7.12502
lthumb 7.56021 44.1467
rfemur -32.8042 -0.511566 26.2741
rtibia 34.6014
rfoot -13.6457 -1.24498
rtoes -1.79738
lfemur -48.9377 9.28074 -23.2496
ltibia 65.0608
lfoot 5.45832 -3.10495
ltoes -27.6566
